<?xml version="1.0" encoding="iso-8859-1"?>
<!-- Generator: Adobe Illustrator 19.0.0, SVG Export Plug-In . SVG Version: 6.00 Build 0)  -->
<svg version="1.1" id="Layer_1" xmlns="http://www.w3.org/2000/svg" xmlns:xlink="http://www.w3.org/1999/xlink" x="0px" y="0px"
	 viewBox="0 0 512 512" style="enable-background:new 0 0 512 512;" xml:space="preserve">
<g>
	<path style="fill:#E5D85A;" d="M134.293,265.644c-1.917,13.304-7.7,25.344-16.206,34.972l64.475,42.983
		c16.746-21.934,27.275-48.775,29.213-77.955H134.293L134.293,265.644z"/>
	<path style="fill:#E5D85A;" d="M118.086,211.378c8.507,9.627,14.289,21.668,16.206,34.972h77.481
		c-1.938-29.18-12.467-56.021-29.213-77.955L118.086,211.378z"/>
	<path style="fill:#E5D85A;" d="M102.691,198.452l66.993-44.662c-24.071-24.057-56.457-39.799-92.505-42.184v77.63
		C86.421,190.568,95.047,193.763,102.691,198.452z"/>
</g>
<path style="fill:#5ECC66;" d="M115.769,255.997c0-26.596-21.641-48.237-48.237-48.237s-48.237,21.641-48.237,48.237
	s21.641,48.237,48.237,48.237S115.769,282.593,115.769,255.997z"/>
<path style="fill:#E5D85A;" d="M77.179,322.758v77.63c36.048-2.385,68.433-18.127,92.505-42.184l-66.992-44.662
	C95.047,318.23,86.421,321.426,77.179,322.758z"/>
<path style="fill:#314E55;" d="M450.601,194.598c-3.769-3.769-9.874-3.769-13.642,0c-3.768,3.769-3.769,9.874,0,13.642
	l38.109,38.109H298.825c-1.938-47.007-17.958-90.421-43.944-126.168l94.829-63.219l-12.606,50.527
	c-1.281,5.172,1.856,10.411,7.028,11.701c0.782,0.188,1.573,0.283,2.346,0.283c4.324,0,8.253-2.93,9.355-7.311l21-84.245
	L292.597,6.908c-5.172-1.253-10.401,1.865-11.701,7.028c-1.281,5.172,1.865,10.411,7.028,11.701l53.851,13.426l-98.927,65.952
	C200.355,55.742,137.547,24.459,67.532,24.459v19.295c63.326,0,120.225,27.912,159.146,72.04l-40.664,27.11
	c-29.884-31.295-71.896-50.913-118.482-50.913h-9.647v97.245C25.216,193.943,0,222.048,0,255.997s25.216,62.053,57.884,66.761
	v97.245h9.647c46.587,0,88.598-19.617,118.482-50.913l40.664,27.11c-38.921,44.127-95.82,72.04-159.146,72.04v19.295
	c70.015,0,132.823-31.283,175.316-80.556l98.927,65.952l-53.851,13.426c-5.163,1.291-8.31,6.529-7.028,11.701
	c1.102,4.381,5.031,7.311,9.355,7.311c0.773,0,1.564-0.094,2.346-0.283l84.236-21.009l-21-84.245
	c-1.3-5.163-6.557-8.291-11.701-7.028c-5.172,1.291-8.31,6.529-7.028,11.701l12.606,50.527l-94.829-63.219
	c25.986-35.747,42.006-79.161,43.944-126.168h176.244l-38.109,38.109c-3.768,3.769-3.768,9.874,0,13.642
	c1.884,1.884,4.353,2.826,6.821,2.826s4.937-0.942,6.821-2.826L512,255.997L450.601,194.598z M238.83,130.882
	c23.935,32.681,38.763,72.416,40.699,115.467h-48.481c-1.942-33.14-13.712-63.605-32.511-88.606L238.83,130.882z M118.086,300.616
	c8.507-9.627,14.289-21.668,16.206-34.972h77.481c-1.938,29.18-12.467,56.021-29.213,77.955L118.086,300.616z M134.293,246.35
	c-1.917-13.304-7.7-25.344-16.206-34.972l64.475-42.983c16.746,21.934,27.275,48.775,29.213,77.955L134.293,246.35L134.293,246.35z
	 M169.684,153.79l-66.992,44.662c-7.644-4.689-16.27-7.884-25.512-9.216v-77.629C113.227,113.992,145.613,129.733,169.684,153.79z
	 M19.295,255.997c0-26.596,21.641-48.237,48.237-48.237s48.237,21.641,48.237,48.237s-21.641,48.237-48.237,48.237
	S19.295,282.593,19.295,255.997z M77.179,400.387v-77.63c9.242-1.332,17.868-4.527,25.512-9.216l66.993,44.662
	C145.613,382.26,113.227,398.002,77.179,400.387z M238.83,381.111l-40.293-26.861c18.8-25.001,30.569-55.466,32.511-88.606h48.481
	C277.593,308.696,262.765,348.431,238.83,381.111z"/>
<g>
</g>
<g>
</g>
<g>
</g>
<g>
</g>
<g>
</g>
<g>
</g>
<g>
</g>
<g>
</g>
<g>
</g>
<g>
</g>
<g>
</g>
<g>
</g>
<g>
</g>
<g>
</g>
<g>
</g>
</svg>
